# xmcd
#
# Track frame offsets: 
#        182
#        13385
#        24275
#        34677
#        47807
#        60002
#        70742
#        85765
#        98900
#        108525
#        119380
#        131200
#
# Disc length: 1902 seconds
#
# Revision: 1
# Processed by: cddbd v1.5.2PL0 Copyright (c) Steve Scherf et al.
# Submitted via: ExactAudioCopy v0.99pb5
#
DISCID=99076c0c
DTITLE=El Gran Combo - En Navidad
DYEAR=1978
DGENRE=Salsa
TTITLE0=Alegria y Paz
TTITLE1=La Cabeza del Lechon
TTITLE2=El Santo Nombre
TTITLE3=Alegre Navidad
TTITLE4=Que Felicidad
TTITLE5=Viva la Navidad
TTITLE6=Cantares
TTITLE7=La Vieja Voladora
TTITLE8=Ya Viene la Nochebuena
TTITLE9=¿Que es la Navidad?
TTITLE10=Bomba Navideña
TTITLE11=Oye su Cantar
EXTD=YEAR: 1978
EXTT0=
EXTT1=
EXTT2=
EXTT3=
EXTT4=
EXTT5=
EXTT6=
EXTT7=
EXTT8=
EXTT9=
EXTT10=
EXTT11=
PLAYORDER=
